<svg width="9" height="16" viewBox="0 0 9 16" fill="none" xmlns="http://www.w3.org/2000/svg">
<path fill-rule="evenodd" clip-rule="evenodd" d="M1.5 10.5087V8.50865C1.5 7.50865 2.5 7.00865 3.5 6.50865L3.48984 1.63387C3.48984 0.122042 6.5135 0.122042 6.5135 1.63387L6.49999 6.50865C7.5 7.00865 8.5 7.50865 8.5 8.50865V10.5087H1.5Z" fill="#BFBF00" stroke="black" stroke-width="1.00001"/>
<path fill-rule="evenodd" clip-rule="evenodd" d="M8.5 10.5088C8.5 14.5088 8.50001 15.5088 7.00001 15.5088H0C1.5 15.5088 1.5 13.5088 1.5 10.5088H8.5Z" fill="white" stroke="black" stroke-width="1.00001"/>
<path d="M8.25186 9.00391H1.75098V9.9866H8.25186V9.00391Z" fill="#808080" stroke="black" stroke-width="0.500007"/>
<path d="M8.25186 9.75977H1.75098V10.7425H8.25186V9.75977Z" fill="#808080" stroke="black" stroke-width="0.500007"/>
<path fill-rule="evenodd" clip-rule="evenodd" d="M4.01922 11.9897C3.79245 13.0858 3.49008 14.5221 2.96094 15.0134H3.3389C3.60347 15.0134 4.01922 14.4465 4.01922 11.9897Z" fill="#808080"/>
<path fill-rule="evenodd" clip-rule="evenodd" d="M6.02215 11.272C5.90876 11.9901 5.64419 14.4468 4.96387 15.0138H5.49301C5.98435 14.1445 6.02215 12.1413 6.02215 11.272Z" fill="#808080"/>
<path fill-rule="evenodd" clip-rule="evenodd" d="M6.70215 15.0137C7.49586 14.2578 7.34467 11.4987 7.26908 11.0073H7.00451C7.15569 11.5365 7.19349 13.9932 6.70215 15.0137Z" fill="#808080"/>
<path fill-rule="evenodd" clip-rule="evenodd" d="M2.01562 15.0137C2.99832 14.5223 3.45187 11.4987 3.52746 11.0073H3.2251C3.2251 11.4609 2.99832 14.031 2.01562 15.0137Z" fill="#808080"/>
<path fill-rule="evenodd" clip-rule="evenodd" d="M4.2832 13.0105C4.58557 12.368 4.73675 12.1034 4.85014 11.0073H4.58557C4.66116 11.5365 4.58557 11.8766 4.2832 13.0105Z" fill="#808080"/>
<path fill-rule="evenodd" clip-rule="evenodd" d="M7.34533 8.17265C6.66501 7.87029 6.13587 7.45453 5.68232 7.22776C5.03979 6.8876 5.07759 7.53012 4.9264 5.18678C4.81302 3.52377 4.81302 1.36941 5.19097 1.36941C5.94689 1.33161 5.8713 5.30017 5.8335 6.812C5.8335 6.812 6.70281 7.18996 7.15636 7.56792C7.57211 7.87029 7.42093 8.21045 7.34533 8.17265Z" fill="#F5F593"/>
</svg>
