<svg width="15" height="15" viewBox="0 0 15 15" fill="none" xmlns="http://www.w3.org/2000/svg">
<path fill-rule="evenodd" clip-rule="evenodd" d="M4.4977 11.2488C4.4977 11.2488 0 11.7401 0 12.7606C0 13.7433 2.00317 14.2725 4.53549 14.2725C7.03001 14.2725 8.01271 13.252 8.9954 13.252C10.0159 13.252 10.9986 11.2488 7.97492 11.2488H6.50088L8.50406 9.24563C9.52454 8.26294 9.52454 6.22196 8.01271 7.73379L4.4977 11.2488Z" fill="#00FFFF"/>
<path fill-rule="evenodd" clip-rule="evenodd" d="M9.52466 3.76514L3.02378 10.2282L2.30566 12.5716L2.68362 12.9117L5.02696 12.2314L11.5278 5.73052C11.0835 4.8182 10.4545 4.11841 9.52466 3.76514Z" fill="white" fill-opacity="0.808036" stroke="black" stroke-width="1.00001"/>
<path fill-rule="evenodd" clip-rule="evenodd" d="M9.83175 2.39579C9.83175 2.39579 8.98818 2.25327 8.54199 2.25327L8.63097 2.84461C10.5964 3.8273 11.4657 4.6966 12.4106 6.62419L13.0019 6.75097V5.95726L12.6994 4.84066C12.4265 3.83348 16.39 2.12087 14.0743 0.403163C12.3139 -0.90271 10.8542 1.28627 9.83175 2.39579Z" fill="#FF0000"/>
<path fill-rule="evenodd" clip-rule="evenodd" d="M6.38789 9.3211C4.27133 11.4377 4.4981 12.0802 6.57687 9.96363L10.81 5.7305C10.6459 5.46085 10.4814 5.02342 10.3187 5.27695L9.03359 6.71319L6.38789 9.3211Z" fill="#D3D3D3"/>
<path fill-rule="evenodd" clip-rule="evenodd" d="M11.5274 0.74134C12.0944 0.363382 13.0393 -0.203556 13.0393 0.627952C13.0393 1.00591 10.8471 1.19489 11.5274 0.74134Z" fill="white"/>
<path fill-rule="evenodd" clip-rule="evenodd" d="M4.53585 11.1732C4.04451 11.5134 3.2886 10.9087 3.17521 11.2488L2.83505 12.3827C2.79725 12.5339 3.77994 12.0803 3.96892 12.0047C4.38467 11.8536 4.61145 11.8914 4.72484 11.778C6.27446 10.1905 7.7485 8.8677 9.26033 7.28027C8.99576 7.43146 7.48393 8.22517 6.8036 8.90549L4.53585 11.1732Z" fill="#00BEBE"/>
</svg>
