<svg width="15" height="12" viewBox="0 0 15 12" fill="none" xmlns="http://www.w3.org/2000/svg">
<path fill-rule="evenodd" clip-rule="evenodd" d="M0.991342 7.00088L6.54733 1.52049C7.53002 0.5 7.53002 0.5 8.5505 0.5H12.0277C13.0482 0.5 13.5395 0.991345 13.5395 2.01183V4.50635L8.02136 9.98675C8.02136 9.98675 7.53002 10.5159 7.03867 10.5159H2.01183C0.499999 10.5159 0.5 10.5159 0.5 9.00405V8.02136C0.5 7.49222 0.991342 7.00088 0.991342 7.00088Z" fill="#C0C0C0" stroke="black" stroke-width="1.00001" stroke-linejoin="round"/>
<path fill-rule="evenodd" clip-rule="evenodd" d="M7.00098 10.4781C7.26555 10.2891 7.49232 9.98677 7.49232 9.57101V7.49224L13.5019 1.52051V4.50638L7.98367 9.98677L7.00098 10.4781Z" fill="#BEBE00" fill-opacity="0.99495" stroke="black" stroke-width="0.75001" stroke-linejoin="round"/>
<path fill-rule="evenodd" clip-rule="evenodd" d="M11.9897 1.02901H8.51244C7.9833 1.02901 7.52975 1.14239 7.30298 1.40696L1.48242 7.22752C1.63361 7.07633 1.78479 7.00074 2.27613 7.00074H6.50926C7.0384 7.00074 7.114 6.88736 7.49195 6.5094L12.481 1.52035C12.5944 1.29358 12.481 0.991211 11.9897 0.991211V1.02901Z" fill="#FFFF95" fill-opacity="0.99495"/>
<path fill-rule="evenodd" clip-rule="evenodd" d="M7.26502 1.40732L1.97361 6.73653C1.82243 6.88771 2.0492 7.11449 2.9941 6.50976L7.98314 1.52071C8.51228 1.10496 7.90755 1.02937 7.71857 1.14275C7.56739 1.18055 7.454 1.25614 7.26502 1.40732Z" fill="white" fill-opacity="0.99495"/>
</svg>
