<svg width="16" height="15" viewBox="0 0 16 15" fill="none" xmlns="http://www.w3.org/2000/svg">
<path fill-rule="evenodd" clip-rule="evenodd" d="M8.99577 12.199L5.97211 9.17532C5.51856 8.68398 5.51856 8.19263 5.51856 7.66349L4.49808 6.6808C4.00673 6.6808 2.98624 6.18945 3.51538 5.69811L8.50443 0.709064C8.99577 0.179922 9.48712 0.709064 9.48712 1.69175L10.5076 2.71224C10.999 2.71224 11.4903 2.71224 12.0194 3.20359L15.0053 6.22725C16.5171 7.70129 10.4698 13.7108 8.99577 12.199Z" fill="white" stroke="black" stroke-width="1.00001"/>
<path fill-rule="evenodd" clip-rule="evenodd" d="M5.51818 7.70107C6.00953 9.70425 8.9954 11.1783 9.48674 12.6901C10.5072 12.6901 16.5168 7.70107 15.0049 6.68058C13.4931 4.7152 14.5136 4.7152 12.5104 4.18606C8.9954 4.7152 12.0191 3.16557 5.51818 4.18606C2.30554 4.7152 3.40162 6.30263 5.51818 7.70107Z" fill="#00BEBE"/>
<path fill-rule="evenodd" clip-rule="evenodd" d="M8.50391 4.18638C9.52439 3.05251 9.78896 2.59896 10.5071 2.67455C10.7339 2.75014 10.7339 2.90132 10.9984 3.20369C10.0157 3.20369 10.0157 3.0903 8.50391 4.18638Z" fill="black"/>
<path fill-rule="evenodd" clip-rule="evenodd" d="M6.99243 5.20654C5.4806 6.18923 4.98926 6.71837 4.98926 7.20972C5.10265 7.3609 6.00974 8.19241 6.00974 7.70107C6.00974 7.20972 6.04754 5.96246 6.99243 5.20654Z" fill="black"/>
<path fill-rule="evenodd" clip-rule="evenodd" d="M6.50098 9.70436C8.76872 7.92795 10.8853 6.11376 12.5105 3.69482L14.0223 5.20666C12.7277 7.81501 10.5994 9.91663 7.97501 11.1784L6.50098 9.70436Z" fill="black" stroke="black" stroke-width="1.00001"/>
<path fill-rule="evenodd" clip-rule="evenodd" d="M4.98905 3.20359C5.51819 2.71225 4.4977 2.18311 3.47721 2.18311C0.793712 2.18311 0 4.18628 0 6.7186C0 12.199 3.02366 16.1676 3.02366 13.1439V6.83199C2.26775 6.00048 2.6835 5.47134 3.06146 5.09338L4.98905 3.20359Z" fill="#00FFFF"/>
<path fill-rule="evenodd" clip-rule="evenodd" d="M8.99577 12.199L5.97211 9.17532C5.51856 8.68398 5.51856 8.19263 5.51856 7.66349L4.49808 6.6808C4.00673 6.6808 2.98624 6.18945 3.51538 5.69811L8.50443 0.709064C8.99577 0.179922 9.48712 0.709064 9.48712 1.69175L10.5076 2.71224C10.999 2.71224 11.4903 2.71224 12.0194 3.20359L15.0053 6.22725C16.5171 7.70129 10.4698 13.7108 8.99577 12.199Z" stroke="black" stroke-width="1.00001"/>
</svg>
