<svg width="10" height="16" viewBox="0 0 10 16" fill="none" xmlns="http://www.w3.org/2000/svg">
<path fill-rule="evenodd" clip-rule="evenodd" d="M0.546586 9.44544C1.00014 8.46275 5.00649 9.97458 4.51514 10.9573L0.508789 14.4723L0.546586 9.44544Z" fill="black" stroke="black" stroke-width="1.00001"/>
<path fill-rule="evenodd" clip-rule="evenodd" d="M0.546875 9.44535C0.546875 10.4658 3.8729 11.7131 4.51543 10.9572L8.03044 3.96496C7.5013 4.94765 3.49495 3.96496 4.02409 2.45312L0.546875 9.44535Z" fill="#FFFF00" stroke="black" stroke-width="1.00001"/>
<path fill-rule="evenodd" clip-rule="evenodd" d="M4.02362 2.45308L4.51496 1.47039C4.77954 1.09243 5.00631 0.638882 5.38427 0.563291C6.14018 0.336516 7.841 0.714474 8.44573 1.77276C8.59691 2.07512 8.59691 2.52867 8.52132 2.94443L7.99218 3.96491C7.50083 4.9476 3.49448 3.96491 4.02362 2.45308Z" fill="#FF3993" stroke="black" stroke-width="1.00001"/>
<path fill-rule="evenodd" clip-rule="evenodd" d="M5.57341 3.43564C5.23325 3.36005 4.8175 3.20887 4.70411 2.86871C4.55293 2.41516 4.8175 1.73483 5.23325 1.47026C5.649 1.20569 6.29153 1.39467 6.74508 1.62145C7.00965 1.69704 7.27422 1.84822 7.31202 2.11279C7.35359 2.36988 7.32255 2.63348 7.22238 2.87388C7.12221 3.11428 6.9569 3.32193 6.74508 3.47344C6.40492 3.66242 5.95137 3.54903 5.57341 3.47344V3.43564Z" fill="#F69CD0"/>
<path fill-rule="evenodd" clip-rule="evenodd" d="M3.49423 6.95075C2.51154 8.95393 0.508363 11.9398 3.00289 6.95075C5.49741 1.96171 4.51471 4.94757 3.49423 6.95075Z" fill="white"/>
<path fill-rule="evenodd" clip-rule="evenodd" d="M4.13714 10.6545C3.99049 10.6999 3.83573 10.7128 3.68359 10.6923C5.08204 7.93324 6.40489 5.06076 6.70725 4.83398H7.00962L4.13714 10.6545Z" fill="#B3B3B3"/>
<path fill-rule="evenodd" clip-rule="evenodd" d="M4.21267 7.97126C2.39847 11.6375 2.70084 10.239 4.0237 7.44212C5.34655 4.68303 6.02687 4.30507 4.21267 7.97126Z" fill="white"/>
<path fill-rule="evenodd" clip-rule="evenodd" d="M0.697656 10.2393L0.62207 12.2424L1.03782 12.0157L1.15121 12.9984L1.90712 12.3936L2.02051 12.8472L3.68353 11.4109C3.041 11.3353 1.79373 11.1842 0.697656 10.2771V10.2393Z" fill="#FFEEAA"/>
<path d="M4.40208 2.0752C5.1958 3.05789 6.66983 3.70041 7.8415 3.77601L7.42575 4.68311C5.91391 4.38074 5.08241 4.11617 3.98633 2.98229L4.40208 2.0752Z" fill="#808080" stroke="black" stroke-width="0.500007"/>
<path d="M4.06195 2.75537C4.89346 3.77586 6.17851 4.2672 7.46357 4.45618L7.08561 5.36328C5.7629 5.22185 4.53204 4.61979 3.6084 3.66247L4.06195 2.75537Z" fill="#808080" stroke="black" stroke-width="0.500007"/>
</svg>
