<svg width="16" height="14" viewBox="0 0 16 14" fill="none" xmlns="http://www.w3.org/2000/svg">
<path fill-rule="evenodd" clip-rule="evenodd" d="M6.99212 6.48595L11.3008 10.8325C12.3213 11.8152 16.3277 7.8088 15.3072 6.82611L10.9985 2.47959C9.97798 1.4969 5.97164 5.50326 6.99212 6.48595Z" fill="#00FFFF" stroke="black" stroke-width="1.00001"/>
<path fill-rule="evenodd" clip-rule="evenodd" d="M8.48583 1.99326C9.46852 1.99326 10.0161 1.49644 10.9988 2.47913L6.99243 6.48549C5.97195 5.50279 6.48583 4.95706 6.48583 3.99326L8.48583 1.99326Z" fill="white" stroke="black" stroke-width="1.00001"/>
<path opacity="0.3" fill-rule="evenodd" clip-rule="evenodd" d="M6.50088 1.49647C0.264575 -0.960262 0.45356 3.0083 0.45356 7.506L0 13.4777C4.30872 10.832 2.04098 5.91857 4.49771 3.0083L6.50088 1.49647Z" fill="#00FFFF"/>
<path d="M5.22523 0.94132C5.39628 1.29914 5.67235 1.52353 5.84185 1.4425C6.01134 1.36147 6.01008 1.00572 5.83902 0.647896C5.66797 0.290074 5.39189 0.0656852 5.2224 0.146712C5.0529 0.227738 5.05417 0.583498 5.22523 0.94132Z" fill="#00FFFF"/>
<path d="M4.49819 3.49978C4.76955 3.49978 4.98953 3.2798 4.98953 3.00844C4.98953 2.73707 4.76955 2.51709 4.49819 2.51709C4.22682 2.51709 4.00684 2.73707 4.00684 3.00844C4.00684 3.2798 4.22682 3.49978 4.49819 3.49978Z" fill="#00FFFF"/>
<path d="M5.02967 2.30217C5.4054 2.30178 5.70984 2.14916 5.70964 1.9613C5.70944 1.77343 5.40469 1.62145 5.02896 1.62185C4.65323 1.62224 4.34879 1.77485 4.34899 1.96272C4.34919 2.15059 4.65394 2.30256 5.02967 2.30217Z" fill="#00FFFF"/>
<path d="M2.49428 1.49685C2.76564 1.49685 2.98563 1.27687 2.98563 1.00551C2.98563 0.734143 2.76564 0.51416 2.49428 0.51416C2.22292 0.51416 2.00293 0.734143 2.00293 1.00551C2.00293 1.27687 2.22292 1.49685 2.49428 1.49685Z" fill="#00FFFF"/>
<path d="M2.49428 3.49978C2.76564 3.49978 2.98563 3.2798 2.98563 3.00844C2.98563 2.73707 2.76564 2.51709 2.49428 2.51709C2.22292 2.51709 2.00293 2.73707 2.00293 3.00844C2.00293 3.2798 2.22292 3.49978 2.49428 3.49978Z" fill="#00FFFF"/>
<path d="M1.47377 2.47927C1.74513 2.47927 1.96512 2.25929 1.96512 1.98793C1.96512 1.71656 1.74513 1.49658 1.47377 1.49658C1.20241 1.49658 0.982422 1.71656 0.982422 1.98793C0.982422 2.25929 1.20241 2.47927 1.47377 2.47927Z" fill="#00FFFF"/>
<path d="M0.491349 3.49978C0.762712 3.49978 0.982699 3.2798 0.982699 3.00844C0.982699 2.73707 0.762712 2.51709 0.491349 2.51709C0.219987 2.51709 0 2.73707 0 3.00844C0 3.2798 0.219987 3.49978 0.491349 3.49978Z" fill="#00FFFF"/>
<path d="M1.47377 4.48269C1.74513 4.48269 1.96512 4.26271 1.96512 3.99135C1.96512 3.71998 1.74513 3.5 1.47377 3.5C1.20241 3.5 0.982422 3.71998 0.982422 3.99135C0.982422 4.26271 1.20241 4.48269 1.47377 4.48269Z" fill="#00FFFF"/>
<path d="M3.47768 4.48269C3.74904 4.48269 3.96903 4.26271 3.96903 3.99135C3.96903 3.71998 3.74904 3.5 3.47768 3.5C3.20631 3.5 2.98633 3.71998 2.98633 3.99135C2.98633 4.26271 3.20631 4.48269 3.47768 4.48269Z" fill="#00FFFF"/>
<path d="M2.49428 5.5032C2.76564 5.5032 2.98563 5.28322 2.98563 5.01185C2.98563 4.74049 2.76564 4.52051 2.49428 4.52051C2.22292 4.52051 2.00293 4.74049 2.00293 5.01185C2.00293 5.28322 2.22292 5.5032 2.49428 5.5032Z" fill="#00FFFF"/>
<path d="M0.491349 5.5032C0.762712 5.5032 0.982699 5.28322 0.982699 5.01185C0.982699 4.74049 0.762712 4.52051 0.491349 4.52051C0.219987 4.52051 0 4.74049 0 5.01185C0 5.28322 0.219987 5.5032 0.491349 5.5032Z" fill="#00FFFF"/>
<path d="M1.47377 6.48562C1.74513 6.48562 1.96512 6.26564 1.96512 5.99428C1.96512 5.72291 1.74513 5.50293 1.47377 5.50293C1.20241 5.50293 0.982422 5.72291 0.982422 5.99428C0.982422 6.26564 1.20241 6.48562 1.47377 6.48562Z" fill="#00FFFF"/>
<path d="M3.47768 6.48562C3.74904 6.48562 3.96903 6.26564 3.96903 5.99428C3.96903 5.72291 3.74904 5.50293 3.47768 5.50293C3.20631 5.50293 2.98633 5.72291 2.98633 5.99428C2.98633 6.26564 3.20631 6.48562 3.47768 6.48562Z" fill="#00FFFF"/>
<path d="M2.49428 7.46853C2.76564 7.46853 2.98563 7.24855 2.98563 6.97719C2.98563 6.70582 2.76564 6.48584 2.49428 6.48584C2.22292 6.48584 2.00293 6.70582 2.00293 6.97719C2.00293 7.24855 2.22292 7.46853 2.49428 7.46853Z" fill="#00FFFF"/>
<path d="M0.491349 7.46853C0.762712 7.46853 0.982699 7.24855 0.982699 6.97719C0.982699 6.70582 0.762712 6.48584 0.491349 6.48584C0.219987 6.48584 0 6.70582 0 6.97719C0 7.24855 0.219987 7.46853 0.491349 7.46853Z" fill="#00FFFF"/>
<path d="M1.47377 8.48904C1.74513 8.48904 1.96512 8.26906 1.96512 7.99769C1.96512 7.72633 1.74513 7.50635 1.47377 7.50635C1.20241 7.50635 0.982422 7.72633 0.982422 7.99769C0.982422 8.26906 1.20241 8.48904 1.47377 8.48904Z" fill="#00FFFF"/>
<path d="M0.491349 9.47146C0.762712 9.47146 0.982699 9.25148 0.982699 8.98011C0.982699 8.70875 0.762712 8.48877 0.491349 8.48877C0.219987 8.48877 0 8.70875 0 8.98011C0 9.25148 0.219987 9.47146 0.491349 9.47146Z" fill="#00FFFF"/>
<path d="M2.49428 9.47146C2.76564 9.47146 2.98563 9.25148 2.98563 8.98011C2.98563 8.70875 2.76564 8.48877 2.49428 8.48877C2.22292 8.48877 2.00293 8.70875 2.00293 8.98011C2.00293 9.25148 2.22292 9.47146 2.49428 9.47146Z" fill="#00FFFF"/>
<path d="M1.47377 10.492C1.74513 10.492 1.96512 10.272 1.96512 10.0006C1.96512 9.72926 1.74513 9.50928 1.47377 9.50928C1.20241 9.50928 0.982422 9.72926 0.982422 10.0006C0.982422 10.272 1.20241 10.492 1.47377 10.492Z" fill="#00FFFF"/>
<path d="M0.491349 11.4749C0.762712 11.4749 0.982699 11.2549 0.982699 10.9835C0.982699 10.7122 0.762712 10.4922 0.491349 10.4922C0.219987 10.4922 0 10.7122 0 10.9835C0 11.2549 0.219987 11.4749 0.491349 11.4749Z" fill="#00FFFF"/>
<path d="M1.47377 12.4954C1.74513 12.4954 1.96512 12.2754 1.96512 12.004C1.96512 11.7327 1.74513 11.5127 1.47377 11.5127C1.20241 11.5127 0.982422 11.7327 0.982422 12.004C0.982422 12.2754 1.20241 12.4954 1.47377 12.4954Z" fill="#00FFFF"/>
<path d="M0.491349 13.4778C0.762712 13.4778 0.982699 13.2578 0.982699 12.9865C0.982699 12.7151 0.762712 12.4951 0.491349 12.4951C0.219987 12.4951 0 12.7151 0 12.9865C0 13.2578 0.219987 13.4778 0.491349 13.4778Z" fill="#00FFFF"/>
<path d="M3.47768 2.47927C3.74904 2.47927 3.96903 2.25929 3.96903 1.98793C3.96903 1.71656 3.74904 1.49658 3.47768 1.49658C3.20631 1.49658 2.98633 1.71656 2.98633 1.98793C2.98633 2.25929 3.20631 2.47927 3.47768 2.47927Z" fill="#00FFFF"/>
<path d="M6.09027 0.76682C6.05978 0.973321 6.15224 1.15803 6.29679 1.17937C6.44134 1.20072 6.58324 1.05062 6.61373 0.844118C6.64423 0.637617 6.55176 0.452911 6.40721 0.431566C6.26266 0.41022 6.12076 0.560319 6.09027 0.76682Z" fill="#00FFFF"/>
<path d="M4.1978 1.12412C4.43257 1.26021 4.6823 1.26806 4.75558 1.14164C4.82886 1.01523 4.69794 0.802427 4.46317 0.666335C4.2284 0.530244 3.97868 0.5224 3.9054 0.648815C3.83212 0.775229 3.96303 0.988029 4.1978 1.12412Z" fill="#00FFFF"/>
<path fill-rule="evenodd" clip-rule="evenodd" d="M6.36885 2.74368L6.16113 2.32837C6.19893 2.13939 6.57689 1.76143 6.76587 1.72363L7.21261 1.89993L6.36885 2.74368Z" fill="black" stroke="white" stroke-width="1.00001"/>
<path fill-rule="evenodd" clip-rule="evenodd" d="M14.5158 7.79559C14.7028 7.45696 10.8833 3.58703 10.5869 3.79257C10.5102 3.8458 10.3938 3.95177 10.3385 4.01311C10.2251 4.20209 10.5159 4.64062 11.9765 6.10367C13.0529 7.18195 14.2332 8.1125 14.3844 7.96132L14.5158 7.79559Z" fill="white"/>
</svg>
